<mxfile host="Electron" modified="2024-07-09T15:54:41.254Z" agent="Mozilla/5.0 (X11; Linux x86_64) AppleWebKit/537.36 (KHTML, like Gecko) draw.io/22.1.18 Chrome/120.0.6099.199 Electron/28.1.2 Safari/537.36" etag="Kqhe0e2-LvFE9LtlgMoX" version="22.1.18" type="device">
  <diagram name="Page-1" id="v39AryzPhel--86jx9Df">
    <mxGraphModel dx="1434" dy="847" grid="1" gridSize="10" guides="1" tooltips="1" connect="1" arrows="1" fold="1" page="1" pageScale="1" pageWidth="850" pageHeight="1100" math="0" shadow="0">
      <root>
        <mxCell id="0" />
        <mxCell id="1" parent="0" />
        <mxCell id="YyPM19EGk28Viyh7vD1m-35" value="" style="edgeStyle=orthogonalEdgeStyle;rounded=0;orthogonalLoop=1;jettySize=auto;html=1;" edge="1" parent="1" source="LhTm-JxjbF8HW0whLVFu-1">
          <mxGeometry relative="1" as="geometry">
            <mxPoint x="200" y="60" as="targetPoint" />
          </mxGeometry>
        </mxCell>
        <mxCell id="LhTm-JxjbF8HW0whLVFu-1" value="Establishment Owner" style="shape=umlActor;verticalLabelPosition=bottom;verticalAlign=top;html=1;outlineConnect=0;" parent="1" vertex="1">
          <mxGeometry x="100" y="30" width="30" height="60" as="geometry" />
        </mxCell>
        <mxCell id="YyPM19EGk28Viyh7vD1m-37" value="" style="edgeStyle=orthogonalEdgeStyle;rounded=0;orthogonalLoop=1;jettySize=auto;html=1;" edge="1" parent="1">
          <mxGeometry relative="1" as="geometry">
            <mxPoint x="320" y="60" as="sourcePoint" />
            <mxPoint x="400" y="60" as="targetPoint" />
          </mxGeometry>
        </mxCell>
        <mxCell id="YyPM19EGk28Viyh7vD1m-41" value="" style="edgeStyle=orthogonalEdgeStyle;rounded=0;orthogonalLoop=1;jettySize=auto;html=1;" edge="1" parent="1" source="YyPM19EGk28Viyh7vD1m-39" target="YyPM19EGk28Viyh7vD1m-40">
          <mxGeometry relative="1" as="geometry" />
        </mxCell>
        <mxCell id="YyPM19EGk28Viyh7vD1m-43" value="no" style="edgeLabel;html=1;align=center;verticalAlign=middle;resizable=0;points=[];" vertex="1" connectable="0" parent="YyPM19EGk28Viyh7vD1m-41">
          <mxGeometry x="-0.175" y="3" relative="1" as="geometry">
            <mxPoint as="offset" />
          </mxGeometry>
        </mxCell>
        <mxCell id="YyPM19EGk28Viyh7vD1m-47" value="" style="edgeStyle=orthogonalEdgeStyle;rounded=0;orthogonalLoop=1;jettySize=auto;html=1;" edge="1" parent="1" source="YyPM19EGk28Viyh7vD1m-39" target="YyPM19EGk28Viyh7vD1m-46">
          <mxGeometry relative="1" as="geometry" />
        </mxCell>
        <mxCell id="YyPM19EGk28Viyh7vD1m-48" value="yes" style="edgeLabel;html=1;align=center;verticalAlign=middle;resizable=0;points=[];" vertex="1" connectable="0" parent="YyPM19EGk28Viyh7vD1m-47">
          <mxGeometry x="-0.2444" y="-4" relative="1" as="geometry">
            <mxPoint as="offset" />
          </mxGeometry>
        </mxCell>
        <mxCell id="YyPM19EGk28Viyh7vD1m-39" value="User has &lt;br&gt;account?" style="rhombus;whiteSpace=wrap;html=1;" vertex="1" parent="1">
          <mxGeometry x="400" y="20" width="120" height="80" as="geometry" />
        </mxCell>
        <mxCell id="YyPM19EGk28Viyh7vD1m-49" style="edgeStyle=orthogonalEdgeStyle;rounded=0;orthogonalLoop=1;jettySize=auto;html=1;exitX=0.5;exitY=1;exitDx=0;exitDy=0;entryX=1;entryY=0.5;entryDx=0;entryDy=0;" edge="1" parent="1" source="YyPM19EGk28Viyh7vD1m-40" target="YyPM19EGk28Viyh7vD1m-46">
          <mxGeometry relative="1" as="geometry" />
        </mxCell>
        <mxCell id="YyPM19EGk28Viyh7vD1m-40" value="Register" style="rounded=1;whiteSpace=wrap;html=1;" vertex="1" parent="1">
          <mxGeometry x="600" y="30" width="120" height="60" as="geometry" />
        </mxCell>
        <mxCell id="YyPM19EGk28Viyh7vD1m-42" value="Access platform" style="rounded=1;whiteSpace=wrap;html=1;" vertex="1" parent="1">
          <mxGeometry x="200" y="30" width="120" height="60" as="geometry" />
        </mxCell>
        <mxCell id="YyPM19EGk28Viyh7vD1m-51" value="" style="edgeStyle=orthogonalEdgeStyle;rounded=0;orthogonalLoop=1;jettySize=auto;html=1;" edge="1" parent="1" source="YyPM19EGk28Viyh7vD1m-46" target="YyPM19EGk28Viyh7vD1m-50">
          <mxGeometry relative="1" as="geometry" />
        </mxCell>
        <mxCell id="YyPM19EGk28Viyh7vD1m-46" value="login" style="rounded=1;whiteSpace=wrap;html=1;" vertex="1" parent="1">
          <mxGeometry x="400" y="190" width="120" height="60" as="geometry" />
        </mxCell>
        <mxCell id="YyPM19EGk28Viyh7vD1m-50" value="Access Management Page" style="whiteSpace=wrap;html=1;rounded=1;" vertex="1" parent="1">
          <mxGeometry x="200" y="190" width="120" height="60" as="geometry" />
        </mxCell>
      </root>
    </mxGraphModel>
  </diagram>
</mxfile>
